<svg width="700" height="300" xmlns="http://www.w3.org/2000/svg">
  <style>
    text { font-family: sans-serif; font-size: 12px; }
    .title { font-size: 14px; font-weight: bold; }
    .label { font-size: 11px; fill: #333; }
  </style>

  <text x="350.0" y="25" text-anchor="middle" class="title">Overflow Timeline: Step Count to Non-Finite</text>

  <line x1="60" y1="60" x2="60" y2="240" stroke="#333" stroke-width="2"/>
  <line x1="60" y1="240" x2="640" y2="240" stroke="#333" stroke-width="2"/>
  <line x1="60.0" y1="60" x2="60.0" y2="240" stroke="#ddd" stroke-width="1"/>
  <line x1="212.6315789473684" y1="60" x2="212.6315789473684" y2="240" stroke="#ddd" stroke-width="1"/>
  <line x1="365.2631578947368" y1="60" x2="365.2631578947368" y2="240" stroke="#ddd" stroke-width="1"/>
  <line x1="517.8947368421052" y1="60" x2="517.8947368421052" y2="240" stroke="#ddd" stroke-width="1"/>
  <rect x="60" y="140" width="91.57894736842104" height="40" fill="#1f77b4" stroke="#333" stroke-width="1"/>
  <text x="15" y="164.0" class="label" text-anchor="end">FP16</text>
  <text x="156.57894736842104" y="164.0" class="label">Step 300 (t=0.30s)</text>
  <rect x="60" y="190" width="580.0" height="40" fill="#ff7f0e" stroke="#333" stroke-width="1"/>
  <text x="15" y="214.0" class="label" text-anchor="end">BF16</text>
  <text x="645.0" y="214.0" class="label">Step 1900 (t=1.90s)</text>
  <rect x="60" y="240" width="580.0" height="40" fill="#2ca02c" stroke="#333" stroke-width="1"/>
  <text x="15" y="264.0" class="label" text-anchor="end">FP32</text>
  <text x="645.0" y="264.0" class="label">Step 1900 (t=1.90s)</text>
  <line x1="60.0" y1="240" x2="60.0" y2="245" stroke="#333" stroke-width="1"/>
  <text x="60.0" y="260" text-anchor="middle" class="label">0</text>
  <line x1="212.6315789473684" y1="240" x2="212.6315789473684" y2="245" stroke="#333" stroke-width="1"/>
  <text x="212.6315789473684" y="260" text-anchor="middle" class="label">500</text>
  <line x1="365.2631578947368" y1="240" x2="365.2631578947368" y2="245" stroke="#333" stroke-width="1"/>
  <text x="365.2631578947368" y="260" text-anchor="middle" class="label">1000</text>
  <line x1="517.8947368421052" y1="240" x2="517.8947368421052" y2="245" stroke="#333" stroke-width="1"/>
  <text x="517.8947368421052" y="260" text-anchor="middle" class="label">1500</text>
</svg>